<?xml version="1.0" encoding="UTF-8"?>
<svg width="23px" height="24px" viewBox="0 0 23 24" version="1.1" xmlns="http://www.w3.org/2000/svg" xmlns:xlink="http://www.w3.org/1999/xlink">
    <!-- Generator: Sketch 39.1 (31720) - http://www.bohemiancoding.com/sketch -->
    <title>Group 12</title>
    <desc>Created with Sketch.</desc>
    <defs>
        <rect id="path-1" x="0" y="0" width="22.8" height="24" rx="3"></rect>
        <mask id="mask-2" maskContentUnits="userSpaceOnUse" maskUnits="objectBoundingBox" x="0" y="0" width="22.8" height="24" fill="white">
            <use xlink:href="#path-1"></use>
        </mask>
    </defs>
    <g id="Page-1" stroke="none" stroke-width="1" fill="none" fill-rule="evenodd" opacity="0.45">
        <g id="02-OSBB_dashboard" transform="translate(-358.000000, -20.000000)" stroke="#124266">
            <g id="Group-16" transform="translate(245.000000, 0.000000)">
                <g id="Group-12" transform="translate(113.000000, 20.000000)">
                    <use id="Rectangle-16" mask="url(#mask-2)" stroke-width="3" xlink:href="#path-1"></use>
                    <path d="M8,6 L18,6" id="Path-4"></path>
                    <path d="M8,10 L18,10" id="Path-4-Copy"></path>
                    <path d="M8,14 L18,14" id="Path-4-Copy-2"></path>
                    <path d="M8,18 L18,18" id="Path-4-Copy-3"></path>
                    <circle id="Oval-3" fill="#D8D8D8" cx="5.5" cy="6" r="0.5"></circle>
                    <circle id="Oval-3-Copy-2" fill="#D8D8D8" cx="5.5" cy="14" r="0.5"></circle>
                    <circle id="Oval-3-Copy" fill="#D8D8D8" cx="5.5" cy="10" r="0.5"></circle>
                    <path d="M5.5,18.5 C5.77614237,18.5 6,18.2761424 6,18 C6,17.7238576 5.77614237,17.5 5.5,17.5 C5.22385763,17.5 5,17.7238576 5,18 C5,18.2761424 5.22385763,18.5 5.5,18.5 Z" id="Oval-3-Copy-3" fill="#D8D8D8"></path>
                </g>
            </g>
        </g>
    </g>
</svg>