<?xml version="1.0" encoding="utf-8"?>
<!-- Generator: Adobe Illustrator 19.0.0, SVG Export Plug-In . SVG Version: 6.00 Build 0)  -->
<svg version="1.1" id="Layer_1" xmlns="http://www.w3.org/2000/svg" xmlns:xlink="http://www.w3.org/1999/xlink" x="0px" y="0px"
	 viewBox="-136.6 127.8 123.7 46.5" style="enable-background:new -136.6 127.8 123.7 46.5;" xml:space="preserve">
<style type="text/css">
	.st0{fill:none;stroke:#BFBFBF;}
	.st1{fill:#2E4B65;}
	.st2{fill:none;stroke:#2D4B65;stroke-width:2;}
	.st3{fill:#9B9B9B;}
</style>
<title>Desktop Copy 3</title>
<desc>Created with Sketch.</desc>
<g id="Page-1">
	<g id="Desktop-Copy-3">
		<polyline id="Path-4" class="st0" points="-63.5,146.5 -52.9,146.5 -52.9,132.8 		"/>
		<path id="Path-2" class="st0" d="M-47,142.5h18.5"/>
		<polyline id="Path-3" class="st0" points="-25.1,145.3 -41.6,145.3 -41.6,148.3 		"/>
		<path id="Homebranded" class="st1" d="M-126.8,165h-1.9v-5.3h-6.2v5.3h-1.9v-12h1.9v5.1h6.2V153h1.9V165z M-119.2,165.1
			c-1.3,0-2.3-0.4-3.1-1.2s-1.2-2-1.2-3.4c0-1.4,0.4-2.5,1.2-3.4c0.8-0.8,1.8-1.3,3.1-1.3s2.3,0.4,3.1,1.2s1.2,2,1.2,3.4
			s-0.4,2.5-1.1,3.4S-117.9,165.1-119.2,165.1L-119.2,165.1z M-119.2,163.6c0.8,0,1.4-0.3,1.8-0.8c0.4-0.5,0.6-1.3,0.6-2.3
			s-0.2-1.8-0.6-2.3c-0.4-0.6-1-0.8-1.8-0.8c-0.8,0-1.4,0.3-1.8,0.8c-0.4,0.6-0.6,1.3-0.6,2.3s0.2,1.7,0.6,2.3
			C-120.6,163.3-120,163.6-119.2,163.6L-119.2,163.6z M-111.8,165v-9h1.7v1.5h0c0.2-0.5,0.5-0.9,1-1.2c0.5-0.3,1-0.4,1.6-0.4
			c0.6,0,1.2,0.2,1.6,0.5c0.4,0.3,0.7,0.7,0.9,1.3h0c0.2-0.5,0.6-1,1.1-1.3s1.1-0.5,1.7-0.5c0.9,0,1.6,0.3,2.1,0.8s0.8,1.3,0.8,2.2
			v6.1h-1.8v-5.7c0-0.6-0.2-1.1-0.5-1.4c-0.3-0.3-0.7-0.5-1.3-0.5c-0.6,0-1,0.2-1.4,0.6s-0.5,0.8-0.5,1.4v5.6h-1.8v-5.9
			c0-0.5-0.2-0.9-0.5-1.2c-0.3-0.3-0.7-0.5-1.3-0.5c-0.6,0-1,0.2-1.4,0.6c-0.4,0.4-0.5,0.9-0.5,1.5v5.5H-111.8z M-91.9,157.3
			c-0.6,0-1.2,0.2-1.6,0.6s-0.7,1-0.7,1.7h4.6c0-0.7-0.2-1.3-0.6-1.7C-90.7,157.6-91.3,157.3-91.9,157.3L-91.9,157.3z M-89.7,162.4
			h1.7c-0.1,0.8-0.6,1.5-1.3,2s-1.6,0.8-2.6,0.8c-1.3,0-2.3-0.4-3.1-1.2s-1.1-1.9-1.1-3.3c0-1.4,0.4-2.5,1.1-3.4s1.8-1.3,3-1.3
			c1.2,0,2.2,0.4,2.9,1.2s1.1,1.9,1.1,3.2v0.6h-6.4v0.1c0,0.8,0.2,1.4,0.7,1.9s1,0.7,1.8,0.7c0.5,0,1-0.1,1.4-0.3
			S-89.8,162.8-89.7,162.4L-89.7,162.4z M-80,165.1c-0.7,0-1.2-0.1-1.7-0.4s-0.9-0.7-1.2-1.2h0v1.5h-1.7v-12.5h1.8v5h0
			c0.3-0.5,0.7-0.9,1.2-1.2c0.5-0.3,1.1-0.4,1.7-0.4c1.1,0,2.1,0.4,2.7,1.3c0.7,0.8,1,2,1,3.3c0,1.4-0.3,2.5-1,3.3
			C-77.9,164.7-78.8,165.1-80,165.1L-80,165.1z M-80.4,157.4c-0.7,0-1.3,0.3-1.8,0.9c-0.4,0.6-0.7,1.3-0.7,2.2
			c0,0.9,0.2,1.7,0.7,2.2c0.4,0.6,1,0.8,1.8,0.8s1.3-0.3,1.7-0.8c0.4-0.6,0.7-1.3,0.7-2.2s-0.2-1.7-0.7-2.2
			C-79.1,157.7-79.7,157.4-80.4,157.4L-80.4,157.4z M-73.1,165v-9h1.7v1.5h0c0.1-0.5,0.4-0.9,0.8-1.2s0.9-0.4,1.4-0.4
			c0.2,0,0.4,0,0.6,0.1v1.7c-0.2-0.1-0.5-0.1-0.8-0.1c-0.6,0-1.1,0.2-1.4,0.6s-0.5,0.9-0.5,1.5v5.4H-73.1z M-62.6,163.7
			c0.7,0,1.2-0.2,1.7-0.6c0.4-0.4,0.7-0.9,0.7-1.5v-0.7l-2.2,0.1c-1.2,0.1-1.9,0.5-1.9,1.3c0,0.4,0.2,0.7,0.5,0.9
			C-63.5,163.5-63.1,163.7-62.6,163.7L-62.6,163.7z M-63.1,165.1c-0.9,0-1.6-0.2-2.2-0.7c-0.6-0.5-0.8-1.1-0.8-1.9
			c0-0.8,0.3-1.4,0.9-1.9c0.6-0.4,1.4-0.7,2.6-0.8l2.4-0.1v-0.7c0-0.5-0.2-0.9-0.5-1.2c-0.3-0.3-0.8-0.4-1.4-0.4
			c-0.5,0-0.9,0.1-1.2,0.3s-0.5,0.5-0.6,0.9h-1.7c0-0.8,0.4-1.5,1.1-2c0.7-0.5,1.5-0.8,2.5-0.8c1.1,0,2,0.3,2.6,0.8
			c0.7,0.5,1,1.3,1,2.1v6.2h-1.7v-1.5h0c-0.2,0.5-0.6,0.9-1.1,1.2S-62.4,165.1-63.1,165.1L-63.1,165.1z M-55,165v-9h1.7v1.5h0
			c0.6-1.1,1.5-1.6,2.9-1.6c1,0,1.8,0.3,2.4,0.9c0.6,0.6,0.9,1.4,0.9,2.4v5.8h-1.8v-5.4c0-0.7-0.2-1.2-0.5-1.6
			c-0.3-0.4-0.9-0.6-1.5-0.6c-0.7,0-1.2,0.2-1.6,0.7c-0.4,0.4-0.6,1-0.6,1.7v5.2H-55z M-40.2,165.1c-1.1,0-2.1-0.4-2.8-1.3
			c-0.7-0.8-1.1-2-1.1-3.3c0-1.4,0.4-2.5,1.1-3.3s1.6-1.3,2.7-1.3c0.6,0,1.2,0.1,1.7,0.4c0.5,0.3,0.9,0.7,1.1,1.2h0v-5h1.8V165h-1.7
			v-1.5h0c-0.3,0.5-0.6,0.9-1.1,1.2S-39.5,165.1-40.2,165.1L-40.2,165.1z M-39.7,157.4c-0.7,0-1.3,0.3-1.8,0.8
			c-0.4,0.6-0.7,1.3-0.7,2.2c0,0.9,0.2,1.7,0.7,2.2c0.4,0.6,1,0.8,1.8,0.8c0.7,0,1.3-0.3,1.8-0.8s0.7-1.3,0.7-2.2s-0.2-1.7-0.7-2.2
			C-38.4,157.7-39,157.4-39.7,157.4L-39.7,157.4z M-28.2,157.3c-0.6,0-1.2,0.2-1.6,0.6c-0.4,0.4-0.7,1-0.7,1.7h4.6
			c0-0.7-0.2-1.3-0.6-1.7C-27,157.6-27.5,157.3-28.2,157.3L-28.2,157.3z M-25.9,162.4h1.7c-0.1,0.8-0.6,1.5-1.3,2s-1.6,0.8-2.6,0.8
			c-1.3,0-2.3-0.4-3.1-1.2s-1.1-1.9-1.1-3.3c0-1.4,0.4-2.5,1.1-3.4s1.8-1.3,3-1.3c1.2,0,2.2,0.4,2.9,1.2s1.1,1.9,1.1,3.2v0.6h-6.4
			v0.1c0,0.8,0.2,1.4,0.7,1.9s1,0.7,1.8,0.7c0.5,0,1-0.1,1.4-0.3S-26.1,162.8-25.9,162.4L-25.9,162.4z M-17.6,165.1
			c-1.1,0-2.1-0.4-2.8-1.3c-0.7-0.8-1.1-2-1.1-3.3c0-1.4,0.4-2.5,1.1-3.3c0.7-0.8,1.6-1.3,2.7-1.3c0.6,0,1.2,0.1,1.7,0.4
			c0.5,0.3,0.9,0.7,1.1,1.2h0v-5h1.8V165h-1.7v-1.5h0c-0.3,0.5-0.6,0.9-1.1,1.2S-17,165.1-17.6,165.1L-17.6,165.1z M-17.1,157.4
			c-0.7,0-1.3,0.3-1.8,0.8c-0.4,0.6-0.7,1.3-0.7,2.2c0,0.9,0.2,1.7,0.7,2.2c0.4,0.6,1,0.8,1.8,0.8c0.7,0,1.3-0.3,1.8-0.8
			s0.7-1.3,0.7-2.2s-0.2-1.7-0.7-2.2C-15.8,157.7-16.4,157.4-17.1,157.4L-17.1,157.4z"/>
		<path id="Path-2-Copy" class="st0" d="M-79.5,151h29"/>
		<polyline id="Path-6" class="st2" points="-84.1,153.3 -48.8,129 -13.5,153.3 		"/>
		<path id="Intelligent-Solution" class="st3" d="M-83.7,173h-0.8v-4.9h0.8V173z M-82.3,173v-3.7h0.7v0.6h0c0.2-0.4,0.6-0.7,1.2-0.7
			c0.4,0,0.7,0.1,1,0.4c0.2,0.2,0.3,0.6,0.3,1v2.3h-0.7v-2.2c0-0.3-0.1-0.5-0.2-0.6c-0.1-0.1-0.3-0.2-0.6-0.2
			c-0.3,0-0.5,0.1-0.7,0.3c-0.2,0.2-0.3,0.4-0.3,0.7v2.1H-82.3z M-77.5,168.5h0.7v0.8h0.7v0.6h-0.7v2c0,0.2,0,0.3,0.1,0.4
			s0.2,0.1,0.3,0.1c0.1,0,0.2,0,0.2,0v0.6c-0.1,0-0.2,0-0.4,0c-0.4,0-0.6-0.1-0.8-0.2c-0.2-0.2-0.2-0.4-0.2-0.8v-2.1H-78v-0.6h0.5
			V168.5z M-73.4,169.9c-0.3,0-0.5,0.1-0.7,0.3c-0.2,0.2-0.3,0.4-0.3,0.7h1.9c0-0.3-0.1-0.5-0.3-0.7C-73,170-73.2,169.9-73.4,169.9
			L-73.4,169.9z M-72.5,171.9h0.7c-0.1,0.3-0.2,0.6-0.5,0.8c-0.3,0.2-0.6,0.3-1.1,0.3c-0.5,0-0.9-0.2-1.3-0.5
			c-0.3-0.3-0.5-0.8-0.5-1.4c0-0.6,0.2-1,0.5-1.4c0.3-0.3,0.7-0.5,1.2-0.5c0.5,0,0.9,0.2,1.2,0.5c0.3,0.3,0.4,0.8,0.4,1.3v0.3h-2.6
			v0c0,0.3,0.1,0.6,0.3,0.8c0.2,0.2,0.4,0.3,0.7,0.3c0.2,0,0.4,0,0.6-0.1C-72.7,172.2-72.6,172.1-72.5,171.9L-72.5,171.9z
			 M-70.6,173v-5.1h0.7v5.1H-70.6z M-68.5,173v-5.1h0.7v5.1H-68.5z M-66.3,173v-3.7h0.7v3.7H-66.3z M-66,168.8c-0.1,0-0.2,0-0.3-0.1
			c-0.1-0.1-0.1-0.2-0.1-0.3c0-0.1,0-0.2,0.1-0.3c0.1-0.1,0.2-0.1,0.3-0.1c0.1,0,0.2,0,0.3,0.1c0.1,0.1,0.1,0.2,0.1,0.3
			c0,0.1,0,0.2-0.1,0.3C-65.7,168.8-65.8,168.8-66,168.8L-66,168.8z M-62.7,172.4c0.3,0,0.5-0.1,0.7-0.3c0.2-0.2,0.3-0.5,0.3-0.9
			c0-0.4-0.1-0.7-0.3-0.9c-0.2-0.2-0.4-0.3-0.7-0.3c-0.3,0-0.5,0.1-0.7,0.3c-0.2,0.2-0.3,0.5-0.3,0.9c0,0.4,0.1,0.7,0.3,0.9
			C-63.2,172.3-63,172.4-62.7,172.4L-62.7,172.4z M-62.7,174.3c-0.4,0-0.8-0.1-1.1-0.3c-0.3-0.2-0.4-0.4-0.5-0.8h0.7
			c0,0.1,0.1,0.3,0.3,0.3c0.2,0.1,0.3,0.1,0.6,0.1c0.3,0,0.5-0.1,0.7-0.2c0.2-0.1,0.3-0.3,0.3-0.6v-0.6h0c-0.1,0.2-0.3,0.4-0.5,0.5
			c-0.2,0.1-0.4,0.2-0.7,0.2c-0.5,0-0.8-0.2-1.1-0.5c-0.3-0.3-0.4-0.8-0.4-1.3c0-0.6,0.1-1,0.4-1.3c0.3-0.3,0.7-0.5,1.1-0.5
			c0.3,0,0.5,0.1,0.7,0.2c0.2,0.1,0.4,0.3,0.5,0.5h0v-0.6h0.7v3.6c0,0.4-0.2,0.8-0.5,1S-62.1,174.3-62.7,174.3L-62.7,174.3z
			 M-58.1,169.9c-0.3,0-0.5,0.1-0.7,0.3s-0.3,0.4-0.3,0.7h1.9c0-0.3-0.1-0.5-0.3-0.7C-57.6,170-57.8,169.9-58.1,169.9L-58.1,169.9z
			 M-57.2,171.9h0.7c-0.1,0.3-0.2,0.6-0.5,0.8s-0.6,0.3-1.1,0.3c-0.5,0-0.9-0.2-1.3-0.5c-0.3-0.3-0.5-0.8-0.5-1.4
			c0-0.6,0.2-1,0.5-1.4c0.3-0.3,0.7-0.5,1.2-0.5c0.5,0,0.9,0.2,1.2,0.5c0.3,0.3,0.4,0.8,0.4,1.3v0.3H-59v0c0,0.3,0.1,0.6,0.3,0.8
			c0.2,0.2,0.4,0.3,0.7,0.3c0.2,0,0.4,0,0.6-0.1C-57.3,172.2-57.2,172.1-57.2,171.9L-57.2,171.9z M-55.3,173v-3.7h0.7v0.6h0
			c0.2-0.4,0.6-0.7,1.2-0.7c0.4,0,0.7,0.1,1,0.4c0.2,0.2,0.3,0.6,0.3,1v2.3h-0.7v-2.2c0-0.3-0.1-0.5-0.2-0.6
			c-0.1-0.1-0.3-0.2-0.6-0.2c-0.3,0-0.5,0.1-0.7,0.3s-0.3,0.4-0.3,0.7v2.1H-55.3z M-50.5,168.5h0.7v0.8h0.7v0.6h-0.7v2
			c0,0.2,0,0.3,0.1,0.4c0.1,0.1,0.2,0.1,0.3,0.1c0.1,0,0.2,0,0.2,0v0.6c-0.1,0-0.2,0-0.4,0c-0.4,0-0.6-0.1-0.8-0.2
			c-0.2-0.2-0.2-0.4-0.2-0.8v-2.1H-51v-0.6h0.5V168.5z M-45.8,171.6h0.7c0,0.2,0.1,0.4,0.4,0.6c0.2,0.1,0.5,0.2,0.8,0.2
			c0.3,0,0.6-0.1,0.8-0.2c0.2-0.1,0.3-0.3,0.3-0.5c0-0.2-0.1-0.3-0.2-0.5c-0.1-0.1-0.4-0.2-0.7-0.3l-0.6-0.2c-0.4-0.1-0.8-0.3-1-0.5
			s-0.3-0.5-0.3-0.8c0-0.4,0.2-0.8,0.5-1c0.3-0.3,0.8-0.4,1.3-0.4c0.5,0,0.9,0.1,1.3,0.4c0.3,0.3,0.5,0.6,0.5,1h-0.7
			c0-0.2-0.1-0.4-0.3-0.6c-0.2-0.1-0.4-0.2-0.7-0.2c-0.3,0-0.5,0.1-0.7,0.2c-0.2,0.1-0.3,0.3-0.3,0.5c0,0.2,0.1,0.3,0.2,0.4
			c0.1,0.1,0.4,0.2,0.7,0.3l0.5,0.1c0.5,0.1,0.9,0.3,1.1,0.5c0.2,0.2,0.3,0.5,0.3,0.9c0,0.5-0.2,0.8-0.5,1.1
			c-0.3,0.3-0.8,0.4-1.4,0.4c-0.5,0-1-0.1-1.3-0.4C-45.6,172.4-45.8,172.1-45.8,171.6L-45.8,171.6z M-39.3,173c-0.5,0-1-0.2-1.3-0.5
			c-0.3-0.3-0.5-0.8-0.5-1.4c0-0.6,0.2-1,0.5-1.4c0.3-0.3,0.7-0.5,1.3-0.5c0.5,0,0.9,0.2,1.3,0.5c0.3,0.3,0.5,0.8,0.5,1.4
			c0,0.6-0.2,1-0.5,1.4C-38.4,172.9-38.8,173-39.3,173L-39.3,173z M-39.3,172.4c0.3,0,0.6-0.1,0.7-0.3s0.3-0.5,0.3-0.9
			c0-0.4-0.1-0.7-0.3-0.9c-0.2-0.2-0.4-0.3-0.7-0.3c-0.3,0-0.6,0.1-0.7,0.3c-0.2,0.2-0.3,0.5-0.3,0.9c0,0.4,0.1,0.7,0.3,0.9
			C-39.9,172.3-39.6,172.4-39.3,172.4L-39.3,172.4z M-36.4,173v-5.1h0.7v5.1H-36.4z M-31.1,169.3v3.7h-0.7v-0.6h0
			c-0.1,0.2-0.3,0.4-0.5,0.5s-0.4,0.2-0.7,0.2c-0.4,0-0.7-0.1-1-0.4s-0.4-0.6-0.4-1v-2.3h0.7v2.2c0,0.3,0.1,0.5,0.2,0.6
			c0.1,0.1,0.3,0.2,0.6,0.2c0.3,0,0.5-0.1,0.7-0.3c0.2-0.2,0.3-0.4,0.3-0.7v-2.1H-31.1z M-29.5,168.5h0.7v0.8h0.7v0.6h-0.7v2
			c0,0.2,0,0.3,0.1,0.4s0.2,0.1,0.3,0.1c0.1,0,0.2,0,0.2,0v0.6c-0.1,0-0.2,0-0.4,0c-0.4,0-0.6-0.1-0.8-0.2c-0.2-0.2-0.2-0.4-0.2-0.8
			v-2.1H-30v-0.6h0.5V168.5z M-26.9,173v-3.7h0.7v3.7H-26.9z M-26.5,168.8c-0.1,0-0.2,0-0.3-0.1s-0.1-0.2-0.1-0.3
			c0-0.1,0-0.2,0.1-0.3s0.2-0.1,0.3-0.1s0.2,0,0.3,0.1s0.1,0.2,0.1,0.3c0,0.1,0,0.2-0.1,0.3S-26.4,168.8-26.5,168.8L-26.5,168.8z
			 M-23.2,173c-0.5,0-1-0.2-1.3-0.5s-0.5-0.8-0.5-1.4c0-0.6,0.2-1,0.5-1.4c0.3-0.3,0.7-0.5,1.3-0.5s0.9,0.2,1.3,0.5
			c0.3,0.3,0.5,0.8,0.5,1.4c0,0.6-0.2,1-0.5,1.4C-22.3,172.9-22.7,173-23.2,173L-23.2,173z M-23.2,172.4c0.3,0,0.6-0.1,0.7-0.3
			s0.3-0.5,0.3-0.9c0-0.4-0.1-0.7-0.3-0.9c-0.2-0.2-0.4-0.3-0.7-0.3s-0.6,0.1-0.7,0.3c-0.2,0.2-0.3,0.5-0.3,0.9
			c0,0.4,0.1,0.7,0.3,0.9C-23.8,172.3-23.5,172.4-23.2,172.4L-23.2,172.4z M-20.3,173v-3.7h0.7v0.6h0c0.2-0.4,0.6-0.7,1.2-0.7
			c0.4,0,0.7,0.1,1,0.4c0.2,0.2,0.3,0.6,0.3,1v2.3h-0.7v-2.2c0-0.3-0.1-0.5-0.2-0.6c-0.1-0.1-0.3-0.2-0.6-0.2
			c-0.3,0-0.5,0.1-0.7,0.3s-0.3,0.4-0.3,0.7v2.1H-20.3z M-15.8,170.4c0-0.3,0.1-0.6,0.4-0.8c0.3-0.2,0.6-0.3,1-0.3
			c0.4,0,0.7,0.1,1,0.3c0.3,0.2,0.4,0.5,0.4,0.8h-0.7c0-0.2-0.1-0.3-0.2-0.4c-0.1-0.1-0.3-0.1-0.5-0.1c-0.2,0-0.4,0-0.5,0.1
			c-0.1,0.1-0.2,0.2-0.2,0.3c0,0.2,0.2,0.4,0.6,0.5l0.6,0.1c0.4,0.1,0.6,0.2,0.8,0.4s0.2,0.4,0.2,0.6c0,0.3-0.1,0.6-0.4,0.8
			c-0.3,0.2-0.6,0.3-1.1,0.3c-0.4,0-0.8-0.1-1-0.3c-0.3-0.2-0.4-0.5-0.4-0.8h0.7c0,0.2,0.1,0.3,0.3,0.4c0.1,0.1,0.3,0.1,0.6,0.1
			c0.2,0,0.4,0,0.5-0.1s0.2-0.2,0.2-0.4c0-0.1,0-0.2-0.1-0.3s-0.2-0.1-0.4-0.2l-0.7-0.2C-15.5,171.2-15.8,170.9-15.8,170.4
			L-15.8,170.4z"/>
		<circle id="Oval" class="st0" cx="-48.5" cy="142.5" r="1.5"/>
		<circle id="Oval-Copy-3" class="st0" cx="-64.5" cy="146.5" r="1.5"/>
		<circle id="Oval-Copy" class="st0" cx="-49.5" cy="151" r="1.5"/>
		<circle id="Oval-Copy-2" class="st0" cx="-41.5" cy="149.5" r="1.5"/>
	</g>
</g>
</svg>
