<?xml version="1.0" encoding="UTF-8"?>
<svg width="17px" height="17px" viewBox="0 0 17 17" version="1.1" xmlns="http://www.w3.org/2000/svg" xmlns:xlink="http://www.w3.org/1999/xlink">
    <title>magnifier-with-small-handle</title>
    <defs></defs>
    <g id="Symbols" stroke="none" stroke-width="1" fill="none" fill-rule="evenodd">
        <g id="search_button" transform="translate(-28.000000, -12.000000)" fill="#FFFFFF">
            <g id="Group-2">
                <g id="magnifier-with-small-handle" transform="translate(28.000000, 12.000000)">
                    <g id="Capa_1">
                        <path d="M17,15.4887596 L14.9279714,13.3912134 L13.2773541,11.7202683 C14.1263459,10.5113836 14.6306483,9.03793744 14.6306483,7.44465907 C14.6306483,3.36122571 11.3488323,0.0389932266 7.31519995,0.0389932266 C3.28131918,0.0389932266 0,3.36122571 0,7.44465907 C0,11.5280505 3.28131918,14.8498219 7.31519995,14.8498219 C9.00026547,14.8498219 10.5495254,14.2645762 11.7872607,13.2920028 L14.6237752,16.1634498 C14.6585961,16.1986995 14.6976402,16.2266981 14.7357734,16.2559541 L15.4890803,17.0182867 L17,15.4887596 L17,15.4887596 Z M7.31565539,13.1079164 C4.23092304,13.1076649 1.72150117,10.5670035 1.72150117,7.44486864 C1.72150117,4.32227272 4.23117147,1.78194663 7.31565539,1.78194663 C10.4001807,1.78194663 12.9096854,4.32227272 12.9096854,7.44486864 C12.9096854,8.74412002 12.4712156,9.93904737 11.7413435,10.8957772 C11.4998332,11.2116833 11.2290087,11.5031117 10.9280835,11.7614698 C9.95247779,12.5991219 8.69238432,13.1079164 7.31565539,13.1079164 L7.31565539,13.1079164 Z" id="Shape"></path>
                    </g>
                </g>
            </g>
        </g>
    </g>
</svg>