<?xml version="1.0" encoding="UTF-8"?>
<svg width="22px" height="19px" viewBox="0 0 22 19" version="1.1" xmlns="http://www.w3.org/2000/svg" xmlns:xlink="http://www.w3.org/1999/xlink">
    <!-- Generator: Sketch 39.1 (31720) - http://www.bohemiancoding.com/sketch -->
    <title>Group 4</title>
    <desc>Created with Sketch.</desc>
    <defs></defs>
    <g id="Page-1" stroke="none" stroke-width="1" fill="none" fill-rule="evenodd">
        <g id="02-OSBB_dashboard" transform="translate(-527.000000, -271.000000)" fill="#124266">
            <g id="Group-4" transform="translate(527.000000, 271.000000)">
                <g id="attachment">
                    <path d="M20.1048255,1.88041762 C17.5355503,-0.653061303 13.424651,-0.526394636 10.9837584,1.88041762 L1.34886577,11.3810728 C-0.449671141,13.1545517 -0.449671141,15.941364 1.34886577,17.7148429 C2.24813423,18.6015824 3.40431544,18.9815824 4.56049664,18.9815824 C5.71667785,18.9815824 6.87285906,18.4749157 7.64367114,17.5881762 L16.3792953,8.97426054 C17.4070201,7.96085441 17.4070201,6.44078161 16.3792953,5.42737548 C15.3515705,4.41396935 13.8100201,4.41396935 12.7822953,5.42737548 L6.74440268,11.3811456 C6.48748993,11.6344789 6.48748993,12.0145517 6.74440268,12.2678851 C7.00131544,12.5212184 7.38675839,12.5212184 7.64367114,12.2678851 L13.6815638,6.31411494 C14.1953893,5.80744828 14.9662013,5.80744828 15.4801007,6.31411494 C15.9939262,6.82078161 15.9939262,7.58085441 15.4801007,8.08759387 L6.74440268,16.7015096 C5.58822148,17.968249 3.53277181,17.968249 2.24813423,16.7015096 C0.963496644,15.5614368 0.963496644,13.5346245 2.24813423,12.2678851 L11.8830268,2.76715709 C13.9384765,0.740344828 17.1501074,0.740344828 19.205557,2.76715709 C21.2610067,4.79396935 21.2610067,7.96085441 19.205557,9.98766667 L12.2684698,16.8281034 C12.011557,17.0814368 12.011557,17.4615096 12.2684698,17.7148429 C12.5253826,17.9681762 12.9108255,17.9681762 13.1677383,17.7148429 L20.1048255,10.8744061 C22.5456443,8.3409272 22.5456443,4.28730268 20.1048255,1.88041762 L20.1048255,1.88041762 Z" id="Shape"></path>
                </g>
            </g>
        </g>
    </g>
</svg>