<?xml version="1.0" encoding="UTF-8"?>
<svg width="24px" height="24px" viewBox="0 0 24 24" version="1.1" xmlns="http://www.w3.org/2000/svg" xmlns:xlink="http://www.w3.org/1999/xlink">
    <!-- Generator: Sketch 39.1 (31720) - http://www.bohemiancoding.com/sketch -->
    <title>Outline Icon</title>
    <desc>Created with Sketch.</desc>
    <defs></defs>
    <g id="Page-1" stroke="none" stroke-width="1" fill="none" fill-rule="evenodd">
        <g id="02-OSBB_dashboard" transform="translate(-1066.000000, -15.000000)" fill="#6F97AA">
            <g id="Outline-Icon" transform="translate(1066.000000, 15.000000)">
                <path d="M12,0 C5.383,0 0,5.383 0,12 C0,18.218 5.033,24 12,24 C15.234,24 18.268,22.731 20.542,20.427 C22.771,18.167 24,15.174 24,12 C24,5.383 18.617,0 12,0 L12,0 Z M4.655,20.17 C5.685,19.607 7.188,19.059 8.657,18.526 C9.171,18.34 9.684,18.154 10.177,17.967 C10.372,17.893 10.5,17.707 10.5,17.499 L10.5,15 C10.5,14.791 10.362,14.602 10.166,14.528 C10.118,14.511 9,14.072 9,12 C9,11.724 8.793,11.506 8.518,11.506 C8.471,11.474 8.38,11.288 8.38,11 C8.38,10.712 8.471,10.526 8.5,10.5 C8.776,10.5 9,10.276 9,10 C9,9.876 8.963,9.744 8.882,9.456 C8.745,8.967 8.327,7.478 8.708,7.066 C8.846,6.916 9.162,6.942 9.402,6.99 C9.664,7.044 9.921,6.881 9.985,6.621 C10.147,5.972 11.311,5.5 12.75,5.5 C14.189,5.5 15.353,5.972 15.515,6.621 C15.744,7.538 15.337,8.809 15.141,9.42 C15.044,9.725 15,9.863 15,10 C15,10.276 15.207,10.494 15.482,10.494 C15.528,10.526 15.619,10.712 15.619,11 C15.619,11.288 15.528,11.474 15.499,11.5 C15.223,11.5 14.999,11.724 14.999,12 C14.999,14.072 13.881,14.511 13.841,14.526 C13.638,14.594 13.5,14.785 13.5,15 L13.5,17.5 C13.5,17.708 13.629,17.895 13.824,17.969 C14.367,18.172 14.909,18.368 15.438,18.56 C16.948,19.106 18.381,19.626 19.357,20.159 C17.333,21.988 14.75,23 12,23 C9.256,23 6.677,21.992 4.655,20.17 L4.655,20.17 Z M20.108,19.432 C19.061,18.807 17.525,18.251 15.778,17.62 C15.358,17.468 14.93,17.312 14.5,17.154 L14.5,15.306 C15.001,14.997 15.884,14.198 15.99,12.37 C16.376,12.144 16.62,11.643 16.62,11 C16.62,10.422 16.422,9.957 16.1,9.706 C16.343,8.95 16.781,7.562 16.485,6.379 C16.138,4.992 14.256,4.5 12.75,4.5 C11.408,4.5 9.768,4.891 9.181,5.956 C8.661,5.927 8.264,6.075 7.974,6.387 C7.221,7.2 7.663,8.811 7.911,9.697 C7.583,9.946 7.38,10.415 7.38,11 C7.38,11.643 7.624,12.144 8.01,12.37 C8.116,14.198 8.999,14.996 9.5,15.306 L9.5,17.154 C9.112,17.299 8.714,17.443 8.316,17.587 C6.691,18.176 5.017,18.783 3.903,19.445 C2.028,17.409 1,14.781 1,12 C1,5.935 5.935,1 12,1 C18.065,1 23,5.935 23,12 C23,14.774 21.976,17.397 20.108,19.432 L20.108,19.432 Z" id="Shape"></path>
            </g>
        </g>
    </g>
</svg>